<?xml version="1.0" encoding="UTF-8"?>
<svg width="27px" height="28px" viewBox="0 0 27 28" version="1.1" xmlns="http://www.w3.org/2000/svg" xmlns:xlink="http://www.w3.org/1999/xlink">
    <title>765C3973-C39F-47BF-A1D2-4575FC565F77@3x</title>
    <g id="🟢-2-review" stroke="none" stroke-width="1" fill="none" fill-rule="evenodd">
        <g id="Icone-esportabili" transform="translate(-252.000000, -237.000000)" fill="#0073E6" fill-rule="nonzero">
            <g id="icona/stepper/check" transform="translate(252.266667, 237.666667)">
                <path d="M20.1333333,7.86666667 L21.0666667,8.8 L10.6666667,18.9333333 L4.4,12.8 L5.33333333,11.8666667 L10.6666667,17.0666667 L20.1333333,7.86666667 Z M26.6666667,13.3333333 C26.6666667,20.69713 20.69713,26.6666667 13.3333333,26.6666667 C5.96953667,26.6666667 -3.00204306e-13,20.69713 -3.00204306e-13,13.3333333 C-3.00204306e-13,5.96953667 5.96953667,-1.20969901e-12 13.3333333,-1.20969901e-12 C16.8695532,-1.20969901e-12 20.2609387,1.40475787 22.7614237,3.90524292 C25.2619088,6.40572796 26.6666667,9.79711347 26.6666667,13.3333333 Z M25.3333333,13.3333333 C25.3333333,6.70591634 19.9607503,1.33333333 13.3333333,1.33333333 C6.70591634,1.33333333 1.33333333,6.70591634 1.33333333,13.3333333 C1.33333333,19.9607503 6.70591634,25.3333333 13.3333333,25.3333333 C19.9607503,25.3333333 25.3333333,19.9607503 25.3333333,13.3333333 L25.3333333,13.3333333 Z" id="Shape"></path>
            </g>
        </g>
    </g>
</svg>