<?xml version="1.0" encoding="UTF-8"?>
<svg width="80px" height="80px" viewBox="0 0 80 80" version="1.1" xmlns="http://www.w3.org/2000/svg" xmlns:xlink="http://www.w3.org/1999/xlink">
    <title>01F888D3-1EFE-4D05-AE73-58CEA343E5D0@3x</title>
    <defs>
        <path d="M39.971038,0.33758915 C61.8442264,0.33758915 79.6404595,18.1338223 79.6404595,40.0070106 C79.6404595,61.880199 61.8442264,79.6764321 39.971038,79.6764321 C18.0978497,79.6764321 0.301616559,61.880199 0.301616559,40.0070106 C0.301616559,18.1338223 18.0978497,0.33758915 39.971038,0.33758915 Z M39.971038,4.30129562 C20.2819328,4.30129562 4.26532303,20.3179054 4.26532303,40.0070106 C4.26532303,59.6961158 20.2819328,75.7127257 39.971038,75.7127257 C59.6601432,75.7127257 75.6767531,59.6961158 75.6767531,40.0070106 C75.6767531,20.3179054 59.6601432,4.30129562 39.971038,4.30129562 Z M50.3575668,30.3485096 C51.1341297,29.5719467 52.3798661,29.5719467 53.156429,30.3485096 C53.9168135,31.1250725 53.9168135,32.3708088 53.1402506,33.1473717 L53.1402506,33.1473717 L36.5250402,49.6655117 C36.1367587,50.0537932 35.6352285,50.2479339 35.1336983,50.2479339 C34.6159897,50.2479339 34.1144595,50.0537932 33.7261781,49.6655117 L33.7261781,49.6655117 L26.7856471,42.6764456 C26.0252626,41.8998827 26.0252626,40.637968 26.8018255,39.8775835 C27.5783884,39.117199 28.8241247,39.117199 29.6006876,39.8937619 L29.6006876,39.8937619 L35.1498767,45.4753077 Z" id="path-1"></path>
    </defs>
    <g id="🟢-3-review" stroke="none" stroke-width="1" fill="none" fill-rule="evenodd">
        <g id="[Prop]-Info-agevolazione" transform="translate(-954.000000, -192.000000)">
            <g id="Group-6" transform="translate(856.000000, 96.000000)">
                <g id="colors/@aqua" transform="translate(98.000000, 96.000000)">
                    <mask id="mask-2" fill="white">
                        <use xlink:href="#path-1"></use>
                    </mask>
                    <g id="Mask" fill-rule="nonzero"></g>
                    <g mask="url(#mask-2)" fill="#00C5CA" id="Rectangle-Copy-9">
                        <g transform="translate(-5.950413, -15.867769)">
                            <rect x="0" y="0" width="96.5289256" height="101.818182"></rect>
                        </g>
                    </g>
                </g>
            </g>
        </g>
    </g>
</svg>