<?xml version="1.0" encoding="UTF-8"?>
<svg width="24px" height="24px" viewBox="0 0 24 24" version="1.1" xmlns="http://www.w3.org/2000/svg" xmlns:xlink="http://www.w3.org/1999/xlink">
    <title>D737F410-2E33-442D-9A33-A5FEA56E3291@3x</title>
    <g id="🟢-2-review" stroke="none" stroke-width="1" fill="none" fill-rule="evenodd">
        <g id="Anagrafica/empty-state" transform="translate(-1088.000000, -504.000000)">
            <g id="modules/checklist" transform="translate(855.000000, 96.000000)">
                <g id="radio/lightbg/list/description" transform="translate(0.000000, 385.000000)">
                    <g id="Status" transform="translate(233.000000, 23.000000)">
                        <rect id="bg" x="0" y="0" width="24" height="24"></rect>
                        <path d="M12,1 C5.95,1 1,5.95 1,12 C1,18.05 5.95,23 12,23 C18.05,23 23,18.05 23,12 C23,5.95 18.05,1 12,1 L12,1 Z M12,20.8 C7.16,20.8 3.2,16.84 3.2,12 C3.2,7.16 7.16,3.2 12,3.2 C16.84,3.2 20.8,7.16 20.8,12 C20.8,16.84 16.84,20.8 12,20.8 L12,20.8 Z" id="Shape" fill="#5C6F82"></path>
                    </g>
                </g>
            </g>
        </g>
    </g>
</svg>