<?xml version="1.0" encoding="UTF-8"?>
<svg width="20px" height="24px" viewBox="0 0 20 24" version="1.1" xmlns="http://www.w3.org/2000/svg" xmlns:xlink="http://www.w3.org/1999/xlink">
    <title>75D1EAFF-26B0-4E18-9E1E-CBB85280A3A6@3x</title>
    <defs>
        <path d="M19.7666038,5.93515789 L13.9267925,0.143204678 C13.8342925,0.0515087719 13.7089623,0 13.5782547,0 L2.39537736,0 C1.0745283,0 0,1.06582456 0,2.37585965 L0,21.5774503 C0,22.8874386 1.07457547,23.9532632 2.39542453,23.9532632 L17.515566,23.9532632 C18.8364151,23.9532632 19.9109906,22.8874854 19.9109906,21.5774503 L19.9109906,6.28084211 C19.9109906,6.15120468 19.8590094,6.0268538 19.7666038,5.93515789 Z M14.0712736,1.66919298 L18.2282075,5.79204678 L15.4809434,5.79204678 C15.1043396,5.79204678 14.750283,5.64659649 14.4840566,5.38254971 C14.217783,5.11854971 14.0712264,4.7674386 14.0712736,4.39396491 L14.0712736,1.66919298 Z M13.0855189,0.977684211 L13.0855189,4.39387135 C13.0854245,5.02849123 13.3345755,5.62512281 13.7869811,6.07382456 C14.239434,6.5225731 14.8409906,6.76968421 15.4808962,6.76968421 L18.9251887,6.76968421 L18.9251887,21.5774035 C18.9251887,22.3483509 18.2928302,22.9755322 17.515566,22.9755322 L2.39537736,22.9755322 C1.61806604,22.9755322 0.985707547,22.3483509 0.985707547,21.5774035 L0.985707547,2.37585965 C0.985707547,1.60491228 1.61811321,0.977684211 2.39537736,0.977684211 L13.0855189,0.977684211 Z M13.2804245,17.2102924 L4.44570755,17.2102924 C4.17353774,17.2102924 3.95283019,17.4291462 3.95283019,17.6991345 C3.95283019,17.9691228 4.17353774,18.1879766 4.44570755,18.1879766 L13.2804245,18.1879766 C13.5525943,18.1879766 13.7733019,17.9691228 13.7733019,17.6991345 C13.7733019,17.4291462 13.5525943,17.2102924 13.2804245,17.2102924 Z M13.2804245,13.9766082 L4.44570755,13.9766082 C4.17353774,13.9766082 3.95283019,14.195462 3.95283019,14.4654503 C3.95283019,14.7354386 4.17353774,14.9542924 4.44570755,14.9542924 L13.2804245,14.9542924 C13.5525943,14.9542924 13.7733019,14.7354386 13.7733019,14.4654503 C13.7733019,14.195462 13.5525943,13.9766082 13.2804245,13.9766082 Z M13.2804245,10.742924 L4.44570755,10.742924 C4.17353774,10.742924 3.95283019,10.9617778 3.95283019,11.2317661 C3.95283019,11.5017544 4.17353774,11.7206082 4.44570755,11.7206082 L13.2804245,11.7206082 C13.5525943,11.7206082 13.7733019,11.5017544 13.7733019,11.2317661 C13.7733019,10.9617778 13.5525943,10.742924 13.2804245,10.742924 Z M10.4309908,7.74292398 L4.29514125,7.74292398 C4.10611504,7.74292398 3.95283019,7.96177778 3.95283019,8.23176608 C3.95283019,8.50175439 4.10611504,8.72060819 4.29514125,8.72060819 L10.4309908,8.72060819 C10.620017,8.72060819 10.7733019,8.50175439 10.7733019,8.23176608 C10.7733019,7.96177778 10.620017,7.74292398 10.4309908,7.74292398 Z" id="path-1"></path>
    </defs>
    <g id="🟢-3-review" stroke="none" stroke-width="1" fill="none" fill-rule="evenodd">
        <g id="Documentazione/disable" transform="translate(-253.000000, -555.000000)">
            <g id="Group-3" transform="translate(251.000000, 555.000000)">
                <g id="documenti-blue" transform="translate(2.000000, 0.000000)">
                    <mask id="mask-2" fill="white">
                        <use xlink:href="#path-1"></use>
                    </mask>
                    <g id="Mask" fill-rule="nonzero"></g>
                    <g id="colors/@blue" mask="url(#mask-2)" fill="#0073E6">
                        <g transform="translate(-33.850259, -33.000000)" id="Rectangle-Copy-8">
                            <rect x="0" y="0" width="100" height="100"></rect>
                        </g>
                    </g>
                </g>
            </g>
        </g>
    </g>
</svg>