<?xml version="1.0" encoding="UTF-8"?>
<svg width="60px" height="80px" viewBox="0 0 60 80" version="1.1" xmlns="http://www.w3.org/2000/svg" xmlns:xlink="http://www.w3.org/1999/xlink">
    <title>9C31A685-E4A0-424F-B0A1-FE22A0B9E786@3x</title>
    <defs>
        <path d="M58.5714286,0 C59.3603516,0 60,0.639648393 60,1.42857143 L60,1.42857143 L60,78.5714286 C60,79.3603516 59.3603516,80 58.5714286,80 L58.5714286,80 L1.42857143,80 C0.639648393,80 0,79.3603516 0,78.5714286 L0,78.5714286 L0,21.4285714 C0,21.3999721 0.0160435357,21.375558 0.0160435357,21.3483538 C0.0237164286,21.2151229 0.0509207143,21.0832868 0.0955635714,20.9570312 C0.108816964,20.9186663 0.1157925,20.8803014 0.131138393,20.8426339 C0.191824821,20.7010323 0.275530179,20.5705914 0.378766786,20.4554966 L0.378766786,20.4554966 L18.9501954,0.455496607 C18.9557757,0.44852125 18.9711216,0.438755536 18.9711216,0.438755536 C19.0004186,0.412946429 19.0304129,0.38923 19.061105,0.366908571 C19.1580636,0.279715357 19.2668805,0.206473214 19.384068,0.149972143 C19.4308036,0.129045714 19.4782366,0.110909643 19.5270646,0.0955635714 C19.6526229,0.0502232143 19.7837611,0.0237164286 19.9169921,0.0174386071 C19.9455914,0.0160435357 19.9700055,0 20,0 L20,0 Z M57.1428571,2.85714286 L21.4285714,2.85714286 L21.4285714,21.4285714 C21.4285714,22.2174945 20.788923,22.8571429 20,22.8571429 L20,22.8571429 L2.85714286,22.8571429 L2.85714286,77.1428571 L57.1428571,77.1428571 L57.1428571,2.85714286 Z M30,47.1428019 C35.2441407,47.1275111 39.9679129,50.3118025 41.9217355,55.1785714 C42.117048,55.6522043 42.0431082,56.1948939 41.7292132,56.5994698 C41.4146205,57.0047432 40.906808,57.2098214 40.399693,57.1372768 C39.8918805,57.0654296 39.462193,56.726423 39.2731586,56.25 C37.7462332,52.469308 34.0771484,49.9937221 30,49.9937221 C25.9228516,49.9937221 22.2537668,52.469308 20.7268414,56.25 C20.4275948,56.9761439 19.5989118,57.3242187 18.8706752,57.029855 C18.1431361,56.7354911 17.7887836,55.9082032 18.0782645,55.1785714 C20.0320871,50.3118025 24.7558593,47.1275111 30,47.1428019 Z M14.5989118,29.1057479 C15.0913784,28.4898159 15.9912109,28.390067 16.6071429,28.8825336 L16.6071429,28.8825336 L23.75,34.5968193 C23.7702287,34.6128627 23.7772043,34.6372768 23.7960379,34.6540179 C23.898577,34.7502789 23.9864677,34.8604911 24.0555246,34.9825614 C24.0910993,35.0279018 24.1231864,35.0760323 24.1510882,35.125558 C24.3303571,35.4973493 24.3303571,35.9312221 24.1510882,36.3030134 C24.1224889,36.3525391 24.0904018,36.3999721 24.0555246,36.44601 C23.9864677,36.5673829 23.898577,36.6775948 23.7960379,36.7731586 C23.7772043,36.7898996 23.7702287,36.8143136 23.75,36.8296596 L23.75,36.8296596 L16.6071429,42.5439454 C15.9912109,43.0371093 15.0913784,42.9373605 14.5989118,42.3214286 C14.1057479,41.7054966 14.2054966,40.8056641 14.8214286,40.3131975 L14.8214286,40.3131975 L18.7841796,37.1428571 L14.2857143,37.1428571 C13.4967912,37.1428571 12.8571429,36.5032087 12.8571429,35.7142857 C12.8571429,34.9253627 13.4967912,34.2857143 14.2857143,34.2857143 L14.2857143,34.2857143 L18.7841796,34.2857143 L14.8214286,31.1139787 C14.2054966,30.6215123 14.1057479,29.7216796 14.5989118,29.1057479 Z M43.3928571,28.8846261 C44.0087891,28.3914621 44.9086216,28.4912109 45.4010882,29.1071429 C45.8942521,29.7230748 45.7945034,30.6229073 45.1785714,31.1153739 L45.1785714,31.1153739 L41.2158204,34.2857143 L45.7142857,34.2857143 C46.5032088,34.2857143 47.1428571,34.9253627 47.1428571,35.7142857 C47.1428571,36.5032088 46.5032088,37.1428571 45.7142857,37.1428571 L45.7142857,37.1428571 L41.2158204,37.1428571 L45.1785714,40.3131975 C45.7945034,40.8056641 45.8942521,41.7054966 45.4010882,42.3214286 C44.9086216,42.9373605 44.0087891,43.0371093 43.3928571,42.5439454 L43.3928571,42.5439454 L36.25,36.8296596 C36.2297713,36.8143136 36.2227957,36.7898996 36.2039621,36.7731586 C36.101423,36.6775948 36.0135323,36.5673829 35.9444754,36.44601 C35.9095982,36.3999721 35.8775111,36.3525391 35.8489118,36.3030134 C35.6696429,35.9312221 35.6696429,35.4973493 35.8489118,35.125558 C35.8775111,35.0760323 35.9095982,35.0285993 35.9444754,34.9825614 C36.0135323,34.8611886 36.101423,34.7509766 36.2039621,34.6554129 C36.2227957,34.6386718 36.2297713,34.6142579 36.25,34.5989118 L36.25,34.5989118 Z M18.5714286,5.06696429 L4.70424107,20 L18.5714286,20 L18.5714286,5.06696429 Z" id="path-1"></path>
    </defs>
    <g id="🟢-3-review" stroke="none" stroke-width="1" fill="none" fill-rule="evenodd">
        <g id="Esito/Rifiutata2" transform="translate(-610.000000, -400.000000)">
            <g id="colors/@aqua" transform="translate(610.000000, 400.000000)">
                <mask id="mask-2" fill="white">
                    <use xlink:href="#path-1"></use>
                </mask>
                <g id="Mask" fill-rule="nonzero"></g>
                <g mask="url(#mask-2)" fill="#00C5CA" id="Rectangle-Copy-9">
                    <g transform="translate(-12.653248, -9.514995)">
                        <rect x="0" y="0" width="90.6666667" height="93.3333333"></rect>
                    </g>
                </g>
            </g>
        </g>
    </g>
</svg>