<svg width="19" height="18" viewBox="0 0 19 18" fill="none" xmlns="http://www.w3.org/2000/svg">
<path fill-rule="evenodd" clip-rule="evenodd" d="M17.0585 1.28797L17.0785 1.30608C17.9193 2.07088 17.9786 3.37383 17.2107 4.21079L9.83146 12.2544C9.76425 12.3277 9.68231 12.3861 9.59096 12.4259L7.07869 13.5202C6.95191 13.5754 6.81824 13.6034 6.68149 13.6034H6.68144C6.36528 13.6034 6.06546 13.4499 5.87936 13.1927C5.69472 12.9375 5.64437 12.6063 5.74469 12.3069L6.61238 9.717C6.64392 9.62284 6.69493 9.53634 6.76219 9.46303L14.1414 1.41935C14.5316 0.99399 15.0874 0.75 15.6663 0.75C16.1827 0.75 16.6771 0.941068 17.0585 1.28797ZM7.9163 10.3087L7.40715 11.8285L8.88131 11.1863L8.92425 11.1395L7.95924 10.2619L7.9163 10.3087ZM16.1586 3.25389L9.88532 10.092L8.92031 9.21441L15.1936 2.37625C15.3162 2.24251 15.4842 2.16882 15.6664 2.16882C15.8262 2.16882 15.9793 2.22803 16.0978 2.33577L16.1177 2.35388C16.3782 2.59078 16.3965 2.99453 16.1586 3.25389ZM14.9344 8.00434C14.9344 7.61256 15.2534 7.29493 15.6469 7.29493C16.0404 7.29493 16.3594 7.61256 16.3594 8.00434V14.0271C16.3594 15.8042 14.9073 17.25 13.1224 17.25H4.48699C2.70212 17.25 1.25 15.8042 1.25 14.0271V5.49894C1.25 3.72182 2.70208 2.27599 4.48699 2.27599H10.7374C11.1309 2.27599 11.4499 2.59362 11.4499 2.9854C11.4499 3.37719 11.1309 3.69481 10.7374 3.69481H4.48699C3.48787 3.69481 2.675 4.50416 2.675 5.49894V14.0271C2.675 15.0219 3.48782 15.8312 4.48699 15.8312H13.1225C14.1216 15.8312 14.9344 15.0219 14.9344 14.0271V8.00434Z" fill="@fillColor"/>
</svg>
