<svg width="80" height="80" viewBox="0 0 80 80" fill="none" xmlns="http://www.w3.org/2000/svg">
<path d="M39.583 0C50.0812 0 60.1499 4.17044 67.5732 11.5938C74.9964 19.017 79.1669 29.085 79.167 39.583C79.167 61.4443 61.4443 79.167 39.583 79.167C17.7219 79.1668 0 61.4442 0 39.583C0.000175517 17.722 17.722 0.000175494 39.583 0ZM39.583 3.95801C19.9081 3.95818 3.95818 19.9081 3.95801 39.583C3.95801 59.258 19.908 75.2078 39.583 75.208C59.2582 75.208 75.208 59.2582 75.208 39.583C75.2078 19.908 59.258 3.95801 39.583 3.95801ZM41.958 64.5205H37.208V57.3955H41.958V64.5205ZM42.3545 48.292H37.6045V14.6455H42.3545V48.292Z" fill="#2BD6D0"/>
</svg>
