<?xml version="1.0" encoding="UTF-8"?>
<svg width="71px" height="75px" viewBox="0 0 71 75" version="1.1" xmlns="http://www.w3.org/2000/svg" xmlns:xlink="http://www.w3.org/1999/xlink">
    <title>0227F6A0-37B4-4C5C-B22D-D4EF831095D2@3x</title>
    <defs>
        <path d="M54.6666667,0 C56.139426,0 57.3333333,1.19390733 57.3333333,2.66666667 L57.3333333,4 C57.3333333,5.47275933 56.139426,6.66666667 54.6666667,6.66666667 L53.333,6.666 L53.3333333,8.41964286 C53.3333333,17.7407388 48.1066392,26.2653076 39.8113699,30.5244712 L39.4202899,30.7209821 C37.8365217,31.4992917 36.8115942,33.0772738 36.8115942,34.8348214 L36.8115942,34.8348214 L36.8115942,39.1651786 C36.8115942,40.9227262 37.8388406,42.5007083 39.4202899,43.2790179 C47.942029,47.468494 53.3333333,56.1159286 53.3333333,65.5803571 L53.3333333,65.5803571 L53.333,67.333 L54.6666667,67.3333333 C56.139426,67.3333333 57.3333333,68.5272407 57.3333333,70 L57.3333333,71.3333333 C57.3333333,72.8060927 56.139426,74 54.6666667,74 L12,74 C10.5272407,74 9.33333333,72.8060927 9.33333333,71.3333333 L9.33333333,70 C9.33333333,68.5272407 10.5272407,67.3333333 12,67.3333333 L13.333,67.333 L13.3333333,65.5803571 C13.3333333,56.2592612 18.5600274,47.7346924 26.8552968,43.4755288 L27.2463768,43.2790179 C28.8278261,42.5007083 29.8550725,40.9227262 29.8550725,39.1651786 L29.8550725,39.1651786 L29.8550725,34.8348214 C29.8550725,33.0772738 28.8278261,31.4992917 27.2463768,30.7209821 C18.7246377,26.531506 13.3333333,17.8840714 13.3333333,8.41964286 L13.3333333,8.41964286 L13.333,6.666 L12,6.66666667 C10.5272407,6.66666667 9.33333333,5.47275933 9.33333333,4 L9.33333333,2.66666667 C9.33333333,1.19390733 10.5272407,0 12,0 L54.6666667,0 Z M54.6666667,69.3333333 L12,69.3333333 C11.6581094,69.3333333 11.3763286,69.5906935 11.3378185,69.9222526 L11.3333333,70 L11.3333333,71.3333333 C11.3333333,71.6752239 11.5906935,71.9570048 11.9222526,71.9955148 L12,72 L54.6666667,72 C55.0085572,72 55.2903381,71.7426399 55.3288482,71.4110808 L55.3333333,71.3333333 L55.3333333,70 C55.3333333,69.6581094 55.0759732,69.3763286 54.7444141,69.3378185 L54.6666667,69.3333333 Z M51.0144928,6.97619048 L15.6521739,6.97619048 L15.6521739,8.41964286 C15.6521739,17.0064524 20.5321739,24.8265 28.2608696,28.6279762 C30.6353623,29.7942857 32.173913,32.1973452 32.173913,34.8348214 L32.173913,34.8348214 L32.173913,39.1651786 C32.173913,41.8003452 30.6353623,44.2057143 28.2608696,45.3720238 C20.5321739,49.1758095 15.6521739,56.9935476 15.6521739,65.5803571 L15.6521739,65.5803571 L15.6521739,67.0238095 L16.2308037,67.022449 C16.8526534,63.010216 17.5312473,60.1977061 18.2665854,58.5849194 C21.4682205,51.5629057 26.9947808,48.0518989 33.437131,48.0518989 C39.8919985,48.0518989 45.4247732,51.5765624 48.6263201,58.6258894 C49.3779967,60.2809687 50.0689019,63.2007496 50.6990358,67.3852322 L50.644,67.023 L51.0144928,67.0238095 L51.0144928,65.5803571 C51.0144928,56.9935476 46.1344928,49.1735 38.4057971,45.3720238 C36.0313043,44.2080238 34.4927536,41.8026548 34.4927536,39.1651786 L34.4927536,39.1651786 L34.4927536,34.8348214 C34.4927536,32.1973452 36.0336232,29.7942857 38.4057971,28.6279762 C46.1344928,24.8241905 51.0144928,17.0064524 51.0144928,8.41964286 L51.0144928,8.41964286 L51.0144928,6.97619048 Z M63.4285835,61.8232221 C64.1198974,61.8232221 64.687766,62.3510188 64.752182,63.0261768 L64.7582674,63.154403 L64.7582674,64.4849747 C64.7582674,65.2203227 64.1631046,65.8161557 63.4285835,65.8161557 C62.7378422,65.8161557 62.1700073,65.288359 62.1055933,64.6132008 L62.099508,64.4849747 L62.099508,63.154403 C62.099508,62.4190551 62.6946709,61.8232221 63.4285835,61.8232221 Z M60.7698241,59.1614695 C61.5043451,59.1614695 62.099508,59.7573023 62.099508,60.4926504 C62.099508,61.1841693 61.5723049,61.7526434 60.8979061,61.81713 L60.7698241,61.8232221 L59.4407487,61.8232221 C58.7062276,61.8232221 58.1110646,61.2273892 58.1110646,60.4926504 C58.1110646,59.8005581 58.6382678,59.2320502 59.3126667,59.1675617 L59.4407487,59.1614695 L60.7698241,59.1614695 Z M67.4170267,59.1614695 C68.1509393,59.1614695 68.7467106,59.7573023 68.7467106,60.4926504 C68.7467106,61.1841693 68.2189685,61.7526434 67.5450135,61.81713 L67.4170267,61.8232221 L66.0873428,61.8232221 C65.3534302,61.8232221 64.7582674,61.2273892 64.7582674,60.4926504 C64.7582674,59.8005581 65.2854704,59.2320502 65.959362,59.1675617 L66.0873428,59.1614695 L67.4170267,59.1614695 Z M63.4285835,55.1685359 C64.1198974,55.1685359 64.687766,55.6963326 64.752182,56.3714907 L64.7582674,56.4997169 L64.7582674,57.8302886 C64.7582674,58.5656366 64.1631046,59.1614695 63.4285835,59.1614695 C62.7378422,59.1614695 62.1700073,58.6336729 62.1055933,57.9585148 L62.099508,57.8302886 L62.099508,56.4997169 C62.099508,55.7643689 62.6946709,55.1685359 63.4285835,55.1685359 Z M33.3333333,44 C34.0692708,44 34.6666667,44.5973959 34.6666667,45.3333333 C34.6666667,46.0692708 34.0692708,46.6666667 33.3333333,46.6666667 C32.5973959,46.6666667 32,46.0692708 32,45.3333333 C32,44.5973959 32.5973959,44 33.3333333,44 Z M5.31751881,35.3213528 C6.0088328,35.3213528 6.57670137,35.8491495 6.64111735,36.5243075 L6.64720273,36.6525337 L6.64720273,37.9831054 C6.64720273,38.7184534 6.05203992,39.3142864 5.31751881,39.3142864 C4.62677754,39.3142864 4.05894266,38.7864897 3.99452867,38.1113315 L3.9884434,37.9831054 L3.9884434,36.6525337 C3.9884434,35.9171858 4.58360622,35.3213528 5.31751881,35.3213528 Z M2.65875948,32.6596002 C3.39328044,32.6596002 3.9884434,33.2554331 3.9884434,33.9907811 C3.9884434,34.6823 3.46124022,35.2507742 2.78684143,35.3152607 L2.65875948,35.3213528 L1.32968408,35.3213528 C0.595162967,35.3213528 2.81996648e-14,34.7255199 2.81996648e-14,33.9907811 C2.81996648e-14,33.2986888 0.527203182,32.7301809 1.2016021,32.6656925 L1.32968408,32.6596002 L2.65875948,32.6596002 Z M9.30596206,32.6596002 C10.0398747,32.6596002 10.635646,33.2554331 10.635646,33.9907811 C10.635646,34.6823 10.1079039,35.2507742 9.43394891,35.3152607 L9.30596206,35.3213528 L7.97627814,35.3213528 C7.24236554,35.3213528 6.64720273,34.7255199 6.64720273,33.9907811 C6.64720273,33.2986888 7.17440578,32.7301809 7.84829736,32.6656925 L7.97627814,32.6596002 L9.30596206,32.6596002 Z M5.31751881,28.6666667 C6.0088328,28.6666667 6.57670137,29.1944633 6.64111735,29.8696215 L6.64720273,29.9978476 L6.64720273,31.3284193 C6.64720273,32.0637674 6.05203992,32.6596002 5.31751881,32.6596002 C4.62677754,32.6596002 4.05894266,32.1318036 3.99452867,31.4566455 L3.9884434,31.3284193 L3.9884434,29.9978476 C3.9884434,29.2624996 4.58360622,28.6666667 5.31751881,28.6666667 Z M48.1287107,10.6965233 C48.7729927,10.7045646 49.2887677,11.2333771 49.2807264,11.8776592 C49.246299,14.6360387 48.2362989,17.2668936 46.4136952,19.258516 C45.9786998,19.7338506 45.2407315,19.7665519 44.7653969,19.3315565 C44.2900623,18.8965611 44.257361,18.1585928 44.6923564,17.6832582 C46.122182,16.1208381 46.9201961,14.0421657 46.9475748,11.848539 C46.9556161,11.204257 47.4844286,10.688482 48.1287107,10.6965233 Z M64.9094862,8.29549189 C65.6008001,8.29549189 66.1686687,8.82269506 66.2330847,9.49709385 L66.2391701,9.6251758 L66.2391701,10.9542512 C66.2391701,11.6887723 65.6440073,12.2839353 64.9094862,12.2839353 C64.2214431,12.2839353 63.6553481,11.7608428 63.5872739,11.0902295 L63.5804108,10.9542512 L63.5804108,9.6251758 C63.5804108,8.89065485 64.1755736,8.29549189 64.9094862,8.29549189 Z M62.2507268,5.63673258 C62.9852478,5.63673258 63.5804108,6.23189538 63.5804108,6.96641649 C63.5804108,7.65445954 63.0573183,8.22055454 62.3867051,8.28862875 L62.2507268,8.29549189 L60.9216514,8.29549189 C60.1871303,8.29549189 59.5919673,7.70032908 59.5919673,6.96641649 C59.5919673,6.27510251 60.1191705,5.70723394 60.7935694,5.64281796 L60.9216514,5.63673258 L62.2507268,5.63673258 Z M68.8979294,5.63673258 C69.631842,5.63673258 70.2276133,6.23189538 70.2276133,6.96641649 C70.2276133,7.65445954 69.7039862,8.22055454 69.0338075,8.28862875 L68.8979294,8.29549189 L67.5682455,8.29549189 C66.8343329,8.29549189 66.2391701,7.70032908 66.2391701,6.96641649 C66.2391701,6.27780295 66.7622624,5.7116723 67.4323743,5.64359586 L67.5682455,5.63673258 L68.8979294,5.63673258 Z M64.9094862,1.64828928 C65.6008001,1.64828928 66.1686687,2.17549239 66.2330847,2.8498913 L66.2391701,2.97797327 L66.2391701,4.30704867 C66.2391701,5.04156977 65.6440073,5.63673258 64.9094862,5.63673258 C64.2214431,5.63673258 63.6553481,5.11364027 63.5872739,4.44302699 L63.5804108,4.30704867 L63.5804108,2.97797327 C63.5804108,2.24345216 64.1755736,1.64828928 64.9094862,1.64828928 Z M54.6666667,2 L12,2 C11.6581094,2 11.3763286,2.25736013 11.3378185,2.58891925 L11.3333333,2.66666667 L11.3333333,4 C11.3333333,4.34189056 11.5906935,4.62367144 11.9222526,4.66218151 L12,4.66666667 L54.6666667,4.66666667 C55.0085572,4.66666667 55.2903381,4.40930654 55.3288482,4.07774742 L55.3333333,4 L55.3333333,2.66666667 C55.3333333,2.32477611 55.0759732,2.04299523 54.7444141,2.00448515 L54.6666667,2 Z" id="path-1"></path>
    </defs>
    <g id="🟢-3-review" stroke="none" stroke-width="1" fill="none" fill-rule="evenodd">
        <g id="Esito/In-attesa/Profilo" transform="translate(-960.000000, -194.000000)">
            <g id="Group-2" transform="translate(856.000000, 96.000000)">
                <g id="colors/@aqua" transform="translate(104.666667, 98.666667)">
                    <mask id="mask-2" fill="white">
                        <use xlink:href="#path-1"></use>
                    </mask>
                    <g id="Mask" fill-rule="nonzero"></g>
                    <g mask="url(#mask-2)" fill="#00C5CA" id="Rectangle-Copy-9">
                        <g transform="translate(-12.684250, -4.666667)">
                            <rect x="0" y="0" width="95.3333333" height="95.3333333"></rect>
                        </g>
                    </g>
                </g>
            </g>
        </g>
    </g>
</svg>