<?xml version="1.0" encoding="UTF-8"?>
<svg width="24px" height="24px" viewBox="0 0 24 24" version="1.1" xmlns="http://www.w3.org/2000/svg" xmlns:xlink="http://www.w3.org/1999/xlink">
    <title>9F08D4A7-7491-4D6A-A184-FBCF75010BC9@3x</title>
    <defs>
        <path d="M12,0 C18.627417,0 24,5.372583 24,12 C24,18.627417 18.627417,24 12,24 C5.372583,24 0,18.627417 0,12 C0,5.372583 5.372583,0 12,0 Z M12,2 C6.4771525,2 2,6.4771525 2,12 C2,17.5228475 6.4771525,22 12,22 C17.5228475,22 22,17.5228475 22,12 C22,6.4771525 17.5228475,2 12,2 Z M12,11 C12.5522847,11 13,11.4477153 13,12 L13,12 L13,18 C13,18.5522847 12.5522847,19 12,19 C11.4477153,19 11,18.5522847 11,18 L11,18 L11,12 C11,11.4477153 11.4477153,11 12,11 Z M12,6.5 C12.82875,6.5 13.5,7.17125 13.5,8 C13.5,8.82875 12.82875,9.5 12,9.5 C11.17125,9.5 10.5,8.82875 10.5,8 C10.5,7.17125 11.17125,6.5 12,6.5 Z" id="path-1"></path>
    </defs>
    <g id="🟢-2-review" stroke="none" stroke-width="1" fill="none" fill-rule="evenodd">
        <g id="Anagrafica/empty-state" transform="translate(-1088.000000, -128.000000)">
            <g id="modules/checklist" transform="translate(855.000000, 96.000000)">
                <g id="i" transform="translate(233.000000, 32.000000)">
                    <mask id="mask-2" fill="white">
                        <use xlink:href="#path-1"></use>
                    </mask>
                    <g id="Mask" fill-rule="nonzero"></g>
                    <g id="color" mask="url(#mask-2)" fill="#0073E6">
                        <g transform="translate(-8.000000, -10.000000)" id="Rectangle-Copy-8">
                            <rect x="0" y="0" width="40" height="40"></rect>
                        </g>
                    </g>
                </g>
            </g>
        </g>
    </g>
</svg>