<svg width="19" height="18" viewBox="0 0 19 18" fill="none" xmlns="http://www.w3.org/2000/svg">
<path fill-rule="evenodd" clip-rule="evenodd" d="M9.48091 3.16406C10.3545 3.16406 11.0627 2.45583 11.0627 1.58217C11.0627 0.708513 10.3545 0.000274658 9.48091 0.000274658C8.60731 0.000274658 7.89912 0.708513 7.89912 1.58217C7.89912 2.45583 8.60731 3.16406 9.48091 3.16406ZM2.08333 2.14582C2.35863 2.14582 2.62239 1.90375 2.60965 1.6195C2.59688 1.33434 2.37839 1.09319 2.08333 1.09319C1.80804 1.09319 1.54428 1.33526 1.55702 1.6195C1.56979 1.90466 1.78828 2.14582 2.08333 2.14582ZM16.3845 3.74466C16.59 3.9502 16.59 4.28343 16.3845 4.48894L15.0915 5.78203L12.6821 3.37241L13.9751 2.0794C14.0738 1.9807 14.2076 1.92522 14.3472 1.92522C14.4868 1.92522 14.6207 1.9807 14.7194 2.0794L16.3845 3.74466ZM0.65414 15.4015L11.9378 4.1168L14.3472 6.52638L3.06361 17.811C2.96491 17.9097 2.83105 17.9652 2.69144 17.9652C2.55182 17.9652 2.41796 17.9097 2.31926 17.811L0.65414 16.1458C0.448632 15.9402 0.448632 15.607 0.65414 15.4015ZM17.002 10.219H16.3509V9.56778C16.3509 9.27712 16.1152 9.04147 15.8246 9.04147C15.5339 9.04147 15.2982 9.27712 15.2982 9.56778V10.219H14.6471C14.3565 10.219 14.1208 10.4546 14.1208 10.7453C14.1208 11.036 14.3565 11.2716 14.6471 11.2716H15.2982V11.9228C15.2982 12.2135 15.5339 12.4492 15.8246 12.4492C16.1152 12.4492 16.3509 12.2135 16.3509 11.9228V11.2716H17.002C17.2927 11.2716 17.5283 11.036 17.5283 10.7453C17.5283 10.4546 17.2927 10.219 17.002 10.219ZM1.6774 6.93898H1.02632C0.735649 6.93898 0.5 6.70333 0.5 6.41266C0.5 6.12199 0.735649 5.88634 1.02632 5.88634H1.6774V5.23512C1.6774 4.94445 1.91305 4.7088 2.20372 4.7088C2.49439 4.7088 2.73004 4.94445 2.73004 5.23512V5.88634H3.38112C3.67179 5.88634 3.90744 6.12199 3.90744 6.41266C3.90744 6.70333 3.67179 6.93898 3.38112 6.93898H2.73004V7.59017C2.73004 7.88084 2.49439 8.11649 2.20372 8.11649C1.91305 8.11649 1.6774 7.88084 1.6774 7.59017V6.93898ZM7.36842 6.33694C7.64372 6.33694 7.90747 6.09487 7.89474 5.81063C7.88197 5.52547 7.66347 5.28431 7.36842 5.28431C7.09312 5.28431 6.82937 5.52638 6.84211 5.81063C6.85488 6.09578 7.07337 6.33694 7.36842 6.33694ZM12.2741 13.2104C12.2614 12.9262 12.5251 12.6841 12.8004 12.6841C13.0955 12.6841 13.314 12.9253 13.3267 13.2104C13.3395 13.4947 13.0757 13.7367 12.8004 13.7367C12.5054 13.7367 12.2869 13.4956 12.2741 13.2104ZM17.9386 14.7983C17.6633 14.7983 17.3995 15.0404 17.4123 15.3247C17.4251 15.6098 17.6435 15.851 17.9386 15.851C18.2139 15.851 18.4776 15.6089 18.4649 15.3247C18.4521 15.0395 18.2336 14.7983 17.9386 14.7983ZM18.4649 6.86775C18.4776 7.15199 18.2139 7.39406 17.9386 7.39406C17.6435 7.39406 17.4251 7.15291 17.4123 6.86775C17.3995 6.5835 17.6633 6.34143 17.9386 6.34143C18.2336 6.34143 18.4521 6.58259 18.4649 6.86775Z" fill="@fillColor"/>
</svg>
