<?xml version="1.0" encoding="UTF-8"?>
<svg width="36px" height="38px" viewBox="0 0 36 38" version="1.1" xmlns="http://www.w3.org/2000/svg" xmlns:xlink="http://www.w3.org/1999/xlink">
    <title>4C9C148B-AE11-4B1C-915F-EF41245AE1BD@3x</title>
    <g id="🟢-2-review" stroke="none" stroke-width="1" fill="none" fill-rule="evenodd">
        <g id="Dati-Operatore/3/filled/fisico" transform="translate(-250.000000, -2535.000000)">
            <g id="Icons/plus/circle" transform="translate(250.000000, 2535.000000)">
                <rect id="borders" x="0" y="0" width="36" height="37.5"></rect>
                <path d="M18.6,17.96875 L25.35,17.96875 L25.35,19.53125 L18.6,19.53125 L18.6,26.5625 L17.1,26.5625 L17.1,19.53125 L10.35,19.53125 L10.35,17.96875 L17.1,17.96875 L17.1,10.9375 L18.6,10.9375 L18.6,17.96875 Z M33,18.75 C33,27.3794492 26.2842712,34.375 18,34.375 C9.71572875,34.375 3,27.3794492 3,18.75 C3,10.1205508 9.71572875,3.125 18,3.125 C21.9782473,3.125 25.793556,4.77120063 28.6066017,7.70145654 C31.4196474,10.6317125 33,14.6059923 33,18.75 Z M31.5,18.75 C31.5,10.9834957 25.4558441,4.6875 18,4.6875 C10.5441559,4.6875 4.5,10.9834957 4.5,18.75 C4.5,26.5165043 10.5441559,32.8125 18,32.8125 C25.4558441,32.8125 31.5,26.5165043 31.5,18.75 L31.5,18.75 Z" id="Shape" fill="#0073E6" fill-rule="nonzero"></path>
            </g>
        </g>
    </g>
</svg>