<svg width="18" height="18" viewBox="0 0 18 18" fill="none" xmlns="http://www.w3.org/2000/svg">
<path fill-rule="evenodd" clip-rule="evenodd" d="M6 3.5V4.5H3C2.58579 4.5 2.25 4.83579 2.25 5.25C2.25 5.66421 2.58579 6 3 6H3.75V13C3.75 14.1046 4.64543 15 5.75 15H11.5C12.6046 15 13.5 14.1046 13.5 13V6H14.25C14.6642 6 15 5.66421 15 5.25C15 4.83579 14.6642 4.5 14.25 4.5H11.25V3.5C11.25 2.80964 10.6904 2.25 10 2.25H7.25C6.55964 2.25 6 2.80964 6 3.5ZM10.5 4.5H6.75V3.53846C6.75 3.24108 6.99108 3 7.28846 3H9.96154C10.2589 3 10.5 3.24108 10.5 3.53846V4.5ZM12.75 6H4.5V13.25C4.5 13.8023 4.94772 14.25 5.5 14.25H11.75C12.3023 14.25 12.75 13.8023 12.75 13.25V6ZM6.75 7.5H6V12.75H6.75V7.5ZM8.25 7.5H9V12.75H8.25V7.5ZM11.25 7.5H10.5V12.75H11.25V7.5Z" fill="@fillColor"/>
</svg>
