<?xml version="1.0" encoding="UTF-8"?>
<svg width="28px" height="28px" viewBox="0 0 28 28" version="1.1" xmlns="http://www.w3.org/2000/svg" xmlns:xlink="http://www.w3.org/1999/xlink">
    <title>A3807FD9-24EC-47F2-B6A8-E35C8EF67AFD@3x</title>
    <g id="🟢-2-review" stroke="none" stroke-width="1" fill="none" fill-rule="evenodd">
        <g id="Dati-Operatore/3" transform="translate(-548.000000, -876.000000)">
            <g id="Icons/password/visible-Copy" transform="translate(548.000000, 876.000000)">
                <rect id="borders" x="0" y="0" width="28" height="28"></rect>
                <path d="M25.4333333,13.4166667 C23.2419787,9.11817146 18.8248416,6.41199813 14,6.41199813 C9.17515844,6.41199813 4.75802128,9.11817146 2.56666667,13.4166667 L2.33333333,14 L2.56666667,14.5833333 C4.75802128,18.8818285 9.17515844,21.5880019 14,21.5880019 C18.8248416,21.5880019 23.2419787,18.8818285 25.4333333,14.5833333 L25.6666667,14 L25.4333333,13.4166667 Z M14,20.4166667 C9.59118279,20.4587477 5.55103498,17.9620272 3.61666667,14 C5.55103498,10.0379728 9.59118279,7.54125228 14,7.58333333 C18.4088172,7.54125228 22.448965,10.0379728 24.3833333,14 C22.448965,17.9620272 18.4088172,20.4587477 14,20.4166667 Z M14,9.33333333 C11.4226712,9.33333333 9.33333333,11.4226712 9.33333333,14 C9.33333333,16.5773288 11.4226712,18.6666667 14,18.6666667 C16.5773288,18.6666667 18.6666667,16.5773288 18.6666667,14 C18.6666667,12.762323 18.1750014,11.5753381 17.2998316,10.7001684 C16.4246619,9.82499859 15.237677,9.33333333 14,9.33333333 Z M14,17.5 C12.0670034,17.5 10.5,15.9329966 10.5,14 C10.5,12.0670034 12.0670034,10.5 14,10.5 C15.9329966,10.5 17.5,12.0670034 17.5,14 C17.532942,14.9379689 17.1747824,15.8474762 16.5111293,16.5111293 C15.8474762,17.1747824 14.9379689,17.532942 14,17.5 Z" id="Shape" fill="#5C6F82" fill-rule="nonzero"></path>
            </g>
        </g>
    </g>
</svg>